/* XPM */
static char *_a090d81c2e64fc0f774f697c1c8b8b5Ec9Eys5iE5yyYI0r[] = {
/* columns rows colors chars-per-pixel */
"32 32 11 1 ",
"  c #001000",
". c #001800",
"X c #002000",
"o c #003000",
"O c #003018",
"+ c #004000",
"@ c #006000",
"# c #004020",
"$ c #006030",
"% c #008000",
"& c #008040",
/* pixels */
"  X XX X  X  X   XX XX  XX  XX  ",
" +@%@@%%o X @%@@o +@%@+X +@%@@%o",
"X@+@%++@X+ o%oo+oX@X+XXX o+++ooX",
" @oo++o@+X @o@%oo ++XXX   oooXX+",
"X+%X+oXXX oo+o@o@ XX  OXo   XX++",
"X@+ooo  oo+@o++@o  OOXOo+o+  XXX",
"X%XX   o++@%o@ooOOOO#O@o++oo   X",
"Xo++X Xoo@+ooOO#$#XOO$+@+o+o o  ",
"  X+X OO oo+#O$$OOXXX#O@ooo  ooo",
" X X  X##O&$#X#OOXXXOO$Oo+  o+o@",
"X+o  XX$$#$#OXXXXX.XX#OOO  @o@@+",
" @Xo  +&O#O...X.OXX.O.O#OOoo@+@+",
" +%X  O&OXO.XX#$#OXXXO#$&#o@@oo+",
" @X+XX##OXXX..#OO.XX..OX$O o+@+o",
" %ooX%##OOXXX...X....XXXO# o++@+",
"X@+oX@+O##XXX.X.XX......O$O oooo",
" +%oXX@XO$OOX.XXX..X.XXXO&#O oo+",
"Xo%X+XXO##OXXX..X..XXX.XO$#OO  o",
"X X+XX OOO#..X..X.X.X##....o o  ",
"XXX  XoO#$#.$..O..X..#..#..+o@o ",
" +%+X  XO$...O.XXXOOXX..O#O@+@oo",
" %+X+ ooO....OOXOOX#OOO..$Oooo@o",
"X@+X ++%#.OOXXXOX$OOO#&OO$O@+o+o",
" +   o@%O#O#XOOOOO#OOO#OOO#Ooooo",
"X @+ o#O#$O#X$#$OOO#OOO#O$##O   ",
"X%XoX##OXXO#OOO&&OOO@o &$OOX+XX ",
"X@+X OOOX OXOO o++@%oo$oOO@XXX  ",
" %XXXX oXXXoXo+oo@+@+o+oOXXXX   ",
" +XX+X   XoXo+@@+@@o%@+o X+ +%@o",
"X X+XX o+oo  oo+o+o+@+oo    o@oo",
" XX%+ +@%+oo   o+@ooooo   @@+ooo",
"o  X o+ooo@o    ooo+oo   o+ooooo"
};
