/* XPM */
static char *_ae3e9eb39524263e19ce6708f03e90bc6IYGzfopNaGLTUI[] = {
/* columns rows colors chars-per-pixel */
"32 32 12 1 ",
"  c None",
". c #003000",
"X c #004000",
"o c #006000",
"O c #008000",
"+ c #00A000",
"@ c #00C000",
"# c #00E000",
"$ c green",
"% c #00A050",
"& c #00C060",
"* c #00E070",
/* pixels */
"  ++++++++++$++++++@+++++#%     ",
" ##########$######@###@@@#*%%   ",
"@@########$######@###@@@##**&%  ",
"@@@######$######@###@@@###**&%% ",
"@@@@####$######@###@@@####**&%%%",
"@@@@@##$######@###@@@#####**&%%%",
"@@@@@@$######@###@@@######**&%%%",
"@@@@@$++++++#+++OOO+++OO+O&&%ooX",
"@@@@$@+++++#+++OOO+++OO+OO&&%ooX",
"@@@$@@++++#+++OOO+++OO+OOO&&%ooX",
"@@$@@@+++#+++OOO+++OO+OOOO&&%ooX",
"@$@@@@++#+++OOO+++OO+OOOOo&&%oXX",
"$@@@@@+#+++OOO+++OO+OOOOoo&&%oXX",
"@@@@@@#+++OOO+++OO+OOOOooo&&%oXX",
"@@@@@#+++OOO+++OO+OOOOoooo&&%oXX",
"@@@@#@++OOO+++OO+OOOOooooo&&%oXX",
"@@@#@@+OOO+++OO+OOOOoooooo&&%oXX",
"@@#@@@OOO+++OO+OOOOooooooo&&%XXX",
"@#@@@+OO+++OO+OOOOoooooooX&&%XX.",
"#@@@++O+++OO+OOOOoooooooXX&&%XX.",
"@@@++@+++OO+OOOOoooooooXXX&&%XX.",
"@@++@@++OO+OOOOoooooooXXX.&&%XX.",
"@++@@#+OO+OOOOoooooooXXX..&&%X..",
"++@@##OO+OOOOoooooooXXX...&&%X..",
"+@@##@O+OOOOoooooooXXX...o&&%...",
"@@##@@+OOOOoooooooXXX...o+&&%o..",
"OOOOOO++@@+++@@+++++++++OO+++O..",
" OOOOO++@@+++@@+++++++OOOOO+++o.",
" OOOOO+@@++@@++++++OOOOOOOoo+++o",
"  OOOO+@@++@@+++OOOOOOOOooooo++O",
"   OOO@@++@++OOOOOOOOOooooooooO ",
"    oo++OO+oooooooooXXXXXXXXXX  "
};
