/* XPM */
static char *_71bde43211947dd85f9cab839545249EGKoPseohWZbS2oU[] = {
/* columns rows colors chars-per-pixel */
"32 32 11 1 ",
"  c #181800",
". c #300C00",
"X c #003000",
"o c #202000",
"O c #302400",
"+ c #401000",
"@ c #403000",
"# c #004000",
"$ c #006000",
"% c #008000",
"& c #00A000",
/* pixels */
" . . . . . . X . . XX . . .# . .",
"....XX.XX..##X#..X$%#$$.$#&%#%$$",
" .#$&X$%%$#%#$$ X$&#&% X#$#$%XX#",
"# %#X##$#&$%$ O+ %#$%$X$#%#%$#O+",
"#$$#X ####%X +#@$$#X$##X#X$$## #",
"+&#$#.X#$$##XOX$#X#XX . $X##XXXo",
" #$%#XX###$# ##X$XX##.X#%X$#X$#X",
".$##$# #$##..#XXX#XX##$#$#XX. X.",
" %$$#XX##X .XX#$### XX#$#$X##X$ ",
".$##$ $#XX.X#X##%$##. X%###%$$+#",
" #$XXX##$###&#$#$&$#X.XX#$&$# ##",
"..%# #X##X##%$%$##%#X ##$#%$#.X ",
" #$#.#X#X#$#$#X##$## ##$%###XX.X",
"X+#&XX$#X##%##X X Xo+#$##$#XX o+",
" X$%X#$##$#&$#$.... ##X#X X .X#X",
".#&##$#X#$$##%## O+#XX$%#X.X##$X",
"X%XX .X####$##%X#X#X#$#XXX #X#$#",
"X$##X##%$#%#$##X#X#X#XX#X.XXX$##",
" .$X$%$##XX##%X#X X#$##%#X##X%$X",
".$%$#X #X XX###XXX###$%##X##%$#$",
"X%&$##.X##X #XX X#X#$###$##%&#$#",
"%%##$XX#$#+#X .######%$X&#####%X",
"#&##$$ ##$#$X$#$#X#$#####&%$##$X",
"%%#$##X$X$$###%$X%%##%$##%##$##X",
"&$###X#XX#%$&$##X#X#$##$$X#$#$#X",
"%#$X#X##$ #%$##XXX####%%#XX###%$",
"$%$XX #%#&$#&$$X X#X#X$X# X#XX#$",
" &%$$X$$X$##$##X. XX$##X#X#$X#%#",
".$XX%#XX##$$X#$#XX.X #XXX #%$X$#",
" . %$$%X$X##+X#. XXX.. X.X##%$#$",
"...%$X# .X$X#XX .. X ##. #X$$# .",
" XX#XX.. #XX##.. ..#+X... ###..."
};
