/* XPM */
static char *_c23d0dd3fbc4416cf01a513d780bb45eBFPNCXpBB0LOjAJ[] = {
/* columns rows colors chars-per-pixel */
"32 32 8 1 ",
"  c #180000",
". c #300000",
"X c #400000",
"o c #600000",
"O c #800000",
"+ c #A00000",
"@ c #C00000",
"# c #E00000",
/* pixels */
"     XoOo X@O+@OOOX XOX X@#OOXX ",
"X   ##+oXX@#@++@+OOX ooXO+#+@OX ",
"   #+O+OXXO++#O+#O+OXoX@+@OOOX  ",
"  #+O+ooO @+O@O#OO#OXO@##OO+o XX",
"X#+o#OOooX O+O++O++O oOO@+oO  +X",
"X#+++++ooo XooOo#OXXX X++OoO +Xo",
"XOoO++O+Ooo XXoXoX #@XoOOoX  OoO",
"ooooO+oXoOoO  Xo @@OoO O+O..+Ooo",
"oOOooOXooOooOX XO+Ooo+o OOX OoOX",
"XXooOoOoOOoOooX @OoO+Oo ..X+XXOO",
"X XXoOOOoXXOXX X#OooOoOoX .OXOXo",
" XOXXXooOoOXX X+OoooOoXX . ooOoX",
"XO#  XXXOOoX  #OO++ooooOX X  XOo",
"o@OooOo XOoX O+OoOOXoX X @#@OoX ",
"o@+OOooOo XX oOoooooOo ++O+ooOoo",
"O#OooOXoXo oX XOOoOoo  @OOOOooOX",
"o+oo+OXXOXX+@O   X oX@+O++o+OoOo",
"+O+O+oXO+@+OO##OO XX ##OO+Oo+OoO",
"+OO+OOX#O+O+@+O#oO oo@O#@Oo+@oOO",
"o+XoXXX+OOO@OOO+OooX@oO+ooOOOoXo",
" XoXX   #+OOO+O+OOo +@+OoOO+oooO",
"  X  +O+  ++OO++Ooo @OooOOOOoXoX",
"o  X@#+O+    OoOooOo@oOooOooXOXo",
" +@@OooOOoOo  XXXXoX+OooO++XOoXX",
" +OOO+OoOoo++ XoOoX+@ooOo@oOXOoX",
"@Oo+OOooo+OOO  X   @OOO+++ooooXo",
"#oO++OOoX+OoOX     +OoO+OooXoXoX",
"OXO++oOOoXoXOXoO @ ++#+OoOooXoXo",
"ooooOOOoXOOXXOXXo+o OOoOooXooXXO",
"XoOoooooooXOoXoO+#o  OOoOOOXX  o",
"XXX X OOoXoo oOoOOOoo OOoXoX X o",
" X X  X    XXXX XXoOo  oXXX X XX"
};
