/* XPM */
static char *fe3bb5bfe7fd472fd52388f58c777d47FyOoW68VY0afks4e[] = {
/* columns rows colors chars-per-pixel */
"32 32 9 1 ",
"  c #101010",
". c #002000",
"X c #183018",
"o c #204020",
"O c #306030",
"+ c #408040",
"@ c #50A050",
"# c #60C060",
"$ c #70E070",
/* pixels */
"  @#OoO+O o#+@#+++o o+o o#$++oo ",
"o#$+$$@Ooo#$#@@#@++o OOo+@$@#+o.",
" @$O@+@+oo+@@$+@$+@+oOo#@#+++oOo",
".#@@+@++o #@+#+$++$+o+#$$++@O+o+",
"o++O$++O #O+@+@@+@@+OO++#@O+OO+o",
"o@O@@+OOo$++OO+O$+O++ o@@+O+@+oO",
"o+O+++O o#O@+OO+OOOO+oO++OoO+OO+",
"Ooo OO.o$@++@#O@O+++O+ +@+@#@+OO",
"O Oo.  @++@++#+@+O+OO+O.++OoOO+o",
"ooOOXoo+O+$+@@OoO+O++oX XX++oo++",
"o.ooOo++OO+@O+O+O+OOoO.O++X+o+oO",
" o+@#o+@+O@+o++@+OoOOoo@OO OO+Oo",
"o+$#+O.o++O+OoO+++@+o.o+Ooo  o+O",
"O#+OO+OXo+Oo++O+O++oXo o #$#+Oo ",
"O#@++OO+O.ooOO+OOOOO+OO@@+@OO+OO",
"+$+OO+OOoO Oo o++O+OOX.#++++OO+o",
"O@OO++oo+oo@#+.  o.Oo#@+@+O++O+O",
"++ooOOo+@#@++$$++Xoo.$$+++O@@+O+",
"o+OoOo@$+@+@#@+$O+XO+#+$#+O@#O++",
" .ooo@#@+++#+++@+OOo+O++OOO++OoO",
" oOOo#@+$@+++@+@++O.+OO+O+@@OOO+",
"X.o.@$+@+$@@++@@+OOXO+OO+++++oOo",
"O Xo#$+++@++++O+OO+Oo++OO+Ooo+oO",
" #+.+OO++O+OO+ooooOo.+O++++o+Ooo",
" @++#@+O+OO@@+oO+OoXoO.OO+oOo+Oo",
"#+Oo++++O@+++O+oOo.#+#++.oOOoOo#",
"$O+ o++Oo@+O+oO+oO$O+O+O+ .XOo$+",
"+oOoOO++OoOo+oO+.#+O@$@+O+Oo O#O",
"OOO.O++Oo++oo+ooO@O+++O+OOoOoo++",
"oO+oXOO+OOo+OoO+@$O+O++O+++OO.oO",
"ooo o.XoOoOO.O+O+++OOO++OoOoooXO",
" o.oX o .X.oooo.ooO+O+OOooooo.oo"
};
