/* XPM */
static char *d94525a767ee4f6fa93bf3e5064e41c97sNCjbp2MQ7NP1nD[] = {
/* columns rows colors chars-per-pixel */
"32 32 13 1 ",
"  c #2C2308",
". c #202020",
"X c #542508",
"o c #503F0C",
"O c #7C761D",
"+ c #853B0D",
"@ c #8A6C13",
"# c #8B6D14",
"$ c #FF7F2F",
"% c #CBC23A",
"& c #CBC23C",
"* c #CDC43C",
"= c #FFF892",
/* pixels */
"****&.$++++++++ ooo######.=*****",
"****O.$+++++++X.o#######*.=*****",
"****O.$+++++++X.o#######*.=*****",
"****O.$+++++++X.o#######*.=*****",
"****O.$+++++++X.@#######*.=*****",
"***OO.++++++XX.=.######**..*****",
"*OO..=..+++X..=**..###*..o#..***",
"O..==***..X.==*****..*.oo####..%",
".==*******.=*********.o########.",
"=********O.=********O.o#######*.",
"=********O.=********O.o#######*.",
"=********O.=********O.o#######*.",
"*********O.=********O.o#######*.",
".*******OO.********OO.######**.=",
"*..***OO..=..****OO..=..##**..=*",
"***..O..==***..*O..==***.*..==**",
"*****.==*******..==******.==****",
"****O.=*******O.=*******O.=*****",
"****O.=*******O.=*******O.=*****",
"****O.=*******O.=*******O.=*****",
"****O.=*******O.********O.******",
"***OO.*******O.$.******OO..*****",
"*OO..=..***OO.$++..***O..=*..***",
"O..==***..O..$+++++..O.==****..*",
".==*******.$$++++++++.=********.",
"=********O.$++++++++X.=*******O.",
"=********O.$++++++++X.=*******O.",
"=********O.$++++++++X.=*******O.",
"*********O.$++++++++X.=*******O.",
".*******OO.++++++++XX.******OOX.",
"*..***OO..$..++++XX..o..**OO...=",
"***..O..$$+++..+X..oo###.O..===*"
};
