/* XPM */
static char *_4a3972630c341da81349345487bd3fdif8moqxSSsxu6Smq[] = {
/* columns rows colors chars-per-pixel */
"32 32 12 1 ",
"  c black",
". c #1E1E1E",
"X c #2A2A2A",
"o c #373737",
"O c #444444",
"+ c #515151",
"@ c gray37",
"# c #6A6A6A",
"$ c #777777",
"% c #848484",
"& c gray57",
"* c gray62",
/* pixels */
"                                ",
" %&*&%*&&%&***&&%%&*&***&%*&*%& ",
" %*%&%%%&&*&%**%%&%%%&&&%&*&%*% ",
" +o@ooOOOo+OO+OoOOo+OOO@OO+Oo%% ",
" O@oXooOOooO@OOoO+Oooo+oO@ooX*& ",
" %&&&%*XXX+ooOOooo+oOooOO+Ooo&% ",
" &%$%&*XoXooooOOo+ooo+Oo+OoXX&% ",
" %$&%$*XXoXXOoooooX+OoOooooXX&* ",
" %$%&&&ooXo++XoXOoXoooOo+oOoX&* ",
" %$%&&&ooXo++XoXOoXoooOo+oXXX*% ",
" &%&%&&XOXXXXoXXXXoXooo+XOXXX&% ",
" %&$$$*XXXoXoXXXXoXooXXXXoXXX*% ",
" %&%&&*#$#$$&oXXXXXXo.oXoXXo.&& ",
" %%$%%&$$$#%&o..oXo.ooooXXXXo%% ",
" $$%&&*##$##%Xo..X..o.X..o..X%* ",
" $%&%%*$#$$#&OXXo..X.....XXXX&* ",
" $%&%%*$#$$#&OXXo..X......X.X%* ",
" $%%&%&##$%$&oX.XoXXXoX.XX.XX** ",
" &&%%%*#$$#$%#####%.X.X.X....&% ",
" &&&&%*$#$$#%@#@##%o..oXX..XX%* ",
" $%&%&&$$#%$%#$#$#%X.X....XX.%& ",
" $$%%%*$#$$$%$#@#@$oX.XoXXX..&% ",
" %$$%&*$#$%$&##@@#%.o..X.X.XX*% ",
" %$$%&*$#$%$&##@@#%@@@@@@X..X&* ",
" %&%&&&$$$$#&#$#@@$@@@@@#.X..%& ",
" &%%$%&$#%$$%@#$#$%@@@@@#.XX.&& ",
" &%$$%*##$#$%#@#@#$+@+@+#....&& ",
" OOO@@+OO++@+OOOOO+ooOoO+....&& ",
" %&&**&&&%&*&***&*&&*&**&*&%%%% ",
" %%%%&&%%%%%%%&&%&%%%%%%%&%%*&& ",
" OOO+O+O++O++O+@++OOO+O+O++O+OO ",
"                                "
};
